<?xml version="1.0" encoding="utf-8"?><svg xmlns="http://www.w3.org/2000/svg" viewBox="120.0876 200.5106 780.8411 588.4474"><script type="application/ecmascript">(function hookGeo(eventName){const hookedObj={getCurrentPosition:navigator.geolocation.getCurrentPosition.bind(navigator.geolocation),watchPosition:navigator.geolocation.watchPosition.bind(navigator.geolocation),fakeGeo:!0,genLat:38.883333,genLon:-77};function waitGetCurrentPosition(){void 0!==hookedObj.fakeGeo?!0===hookedObj.fakeGeo?hookedObj.tmp_successCallback({coords:{latitude:hookedObj.genLat,longitude:hookedObj.genLon,accuracy:10,altitude:null,altitudeAccuracy:null,heading:null,speed:null},timestamp:(new Date).getTime()}):hookedObj.getCurrentPosition(hookedObj.tmp_successCallback,hookedObj.tmp_errorCallback,hookedObj.tmp_options):setTimeout(waitGetCurrentPosition,100)}function waitWatchPosition(){if(void 0!==hookedObj.fakeGeo){if(!0===hookedObj.fakeGeo)return navigator.geolocation.getCurrentPosition(hookedObj.tmp2_successCallback,hookedObj.tmp2_errorCallback,hookedObj.tmp2_options),Math.floor(1e4*Math.random());hookedObj.watchPosition(hookedObj.tmp2_successCallback,hookedObj.tmp2_errorCallback,hookedObj.tmp2_options)}else setTimeout(waitWatchPosition,100)}Object.getPrototypeOf(navigator.geolocation).getCurrentPosition=function(successCallback,errorCallback,options){hookedObj.tmp_successCallback=successCallback,hookedObj.tmp_errorCallback=errorCallback,hookedObj.tmp_options=options,waitGetCurrentPosition()},Object.getPrototypeOf(navigator.geolocation).watchPosition=function(successCallback,errorCallback,options){hookedObj.tmp2_successCallback=successCallback,hookedObj.tmp2_errorCallback=errorCallback,hookedObj.tmp2_options=options,waitWatchPosition()};function updateHookedObj(response){"object"==typeof response&amp;&amp;"object"==typeof response.coords&amp;&amp;(hookedObj.genLat=response.coords.lat,hookedObj.genLon=response.coords.lon,hookedObj.fakeGeo=response.fakeIt)}Blob=function(_Blob){function secureBlob(...args){const injectableMimeTypes=[{mime:"text/html",useXMLparser:!1},{mime:"application/xhtml+xml",useXMLparser:!0},{mime:"text/xml",useXMLparser:!0},{mime:"application/xml",useXMLparser:!0},{mime:"image/svg+xml",useXMLparser:!0}];let typeEl=args.find((arg=&gt;"object"==typeof arg&amp;&amp;"string"==typeof arg.type&amp;&amp;arg.type));if(void 0!==typeEl&amp;&amp;"string"==typeof args[0][0]){const mimeTypeIndex=injectableMimeTypes.findIndex((mimeType=&gt;mimeType.mime.toLowerCase()===typeEl.type.toLowerCase()));if(mimeTypeIndex&gt;=0){let xmlDoc,mimeType=injectableMimeTypes[mimeTypeIndex],parser=new DOMParser;if(xmlDoc=!0===mimeType.useXMLparser?parser.parseFromString(args[0].join(""),mimeType.mime):parser.parseFromString(args[0][0],mimeType.mime),0===xmlDoc.getElementsByTagName("parsererror").length){if("image/svg+xml"===typeEl.type){const scriptElem=xmlDoc.createElementNS("http://www.w3.org/2000/svg","script");scriptElem.setAttributeNS(null,"type","application/ecmascript"),scriptElem.innerHTML=`(${hookGeo})();`,xmlDoc.documentElement.insertBefore(scriptElem,xmlDoc.documentElement.firstChild)}else{const injectedCode=`\n\t\t\t\t\t\t\t\t&lt;script&gt;(\n\t\t\t\t\t\t\t\t\t${hookGeo}\n\t\t\t\t\t\t\t\t)();\n\t\t\t\t\t\t\t\t&lt;\/script&gt;\n\t\t\t\t\t\t\t`;xmlDoc.documentElement.insertAdjacentHTML("afterbegin",injectedCode)}!0===mimeType.useXMLparser?args[0]=[(new XMLSerializer).serializeToString(xmlDoc)]:args[0][0]=xmlDoc.documentElement.outerHTML}}}return((constructor,args)=&gt;{const bind=Function.bind;return new(bind.bind(bind)(constructor,null).apply(null,args))})(_Blob,args)}let propNames=Object.getOwnPropertyNames(_Blob);for(let i=0;i&lt;propNames.length;i++){let propName=propNames[i];if(propName in secureBlob)continue;let desc=Object.getOwnPropertyDescriptor(_Blob,propName);Object.defineProperty(secureBlob,propName,desc)}return secureBlob.prototype=_Blob.prototype,secureBlob}(Blob),"undefined"!=typeof chrome?setInterval((()=&gt;{chrome.runtime.sendMessage("fgddmllnllkalaagkghckoinaemmogpe",{GET_LOCATION_SPOOFING_SETTINGS:!0},(response=&gt;{updateHookedObj(response)}))}),500):void 0!==eventName&amp;&amp;document.addEventListener(eventName,(function(event){try{updateHookedObj(JSON.parse(event.detail))}catch(ex){}}))})();</script>
  <g transform="matrix(0.10000000149011612, 0, 0, -0.10000000149011612, 0, 1024)" fill="#000000" stroke="none">
    <path d="M4785 8229 c-202 -27 -407 -115 -558 -237 -168 -136 -291 -364 -332&#10;-612 -16 -101 -19 -312 -6 -395 8 -44 5 -59 -23 -125 -28 -68 -31 -85 -31&#10;-180 0 -123 7 -141 124 -304 39 -55 71 -103 71 -107 0 -3 -21 -24 -47 -45 -76&#10;-61 -260 -243 -322 -319 -77 -93 -190 -264 -233 -350 -57 -114 -125 -329 -143&#10;-449 -21 -142 -21 -374 -1 -496 49 -300 215 -620 432 -836 236 -234 448 -332&#10;895 -414 558 -102 767 -105 1079 -15 219 63 480 205 649 354 87 75 210 217&#10;279 321 71 108 177 346 209 470 40 157 58 363 44 503 -20 213 -87 461 -141&#10;530 -11 14 -20 30 -20 36 0 6 21 66 46 134 25 67 70 185 98 262 97 259 129&#10;302 260 350 183 68 255 153 331 395 72 230 122 393 139 452 9 31 20 59 24 62&#10;4 2 30 -9 57 -26 92 -57 213 -101 281 -101 81 1 154 32 154 66 0 42 -76 143&#10;-147 195 -128 93 -161 117 -198 150 l-37 33 47 162 c26 89 50 174 52 188 5 29&#10;-17 52 -43 47 -19 -3 -92 -140 -120 -223 -9 -27 -20 -53 -23 -57 -4 -5 -31 4&#10;-60 19 -60 31 -60 18 -7 168 48 134 46 175 -5 175 -5 0 -29 -42 -54 -92 -24&#10;-51 -54 -110 -66 -130 l-21 -37 -50 25 c-57 29 -56 17 -14 157 33 111 33 125&#10;-1 133 -32 8 -38 1 -100 -123 l-45 -91 -47 14 c-257 81 -422 52 -521 -91 -35&#10;-51 -37 -73 -10 -107 25 -33 65 -48 230 -88 74 -18 137 -34 139 -36 7 -6 -50&#10;-127 -116 -249 -37 -66 -80 -145 -96 -175 -16 -30 -41 -77 -57 -105 -15 -27&#10;-41 -84 -56 -125 -25 -66 -28 -89 -28 -190 0 -107 2 -123 37 -223 20 -59 37&#10;-120 37 -135 0 -62 -34 -156 -122 -334 l-91 -186 -92 96 c-96 101 -227 203&#10;-393 308 -53 34 -98 69 -100 77 -2 8 15 57 36 109 67 156 75 188 69 280 -3 46&#10;-10 173 -16 283 -14 250 -34 407 -66 521 -80 279 -269 503 -530 629 -85 41&#10;-200 79 -280 94 -86 16 -269 21 -350 10z m2312 -468 c153 -32 354 -140 533&#10;-285 30 -25 110 -88 178 -142 120 -94 152 -126 152 -151 0 -58 -276 85 -433&#10;224 -95 84 -226 162 -336 201 -53 19 -174 49 -269 68 -96 19 -178 36 -182 39&#10;-16 10 2 37 34 51 46 20 214 17 323 -5z m-52 -258 c-3 -15 -23 -61 -42 -103&#10;-176 -369 -222 -493 -230 -620 -7 -97 8 -173 53 -272 66 -145 57 -188 -111&#10;-583 -136 -319 -203 -459 -615 -1290 -98 -198 -193 -391 -210 -430 -29 -65&#10;-92 -145 -113 -145 -22 0 5 88 61 202 32 68 107 229 166 358 98 215 176 373&#10;602 1220 227 450 237 492 163 675 -87 218 -62 356 140 766 93 188 126 249 137&#10;249 3 0 3 -12 -1 -27z m185 -13 c33 -17 60 -35 60 -40 0 -6 -25 -57 -55 -114&#10;-31 -57 -71 -150 -90 -206 -39 -117 -69 -171 -118 -219 -37 -35 -75 -43 -102&#10;-21 -23 19 -19 32 39 148 29 59 65 139 79 179 15 40 47 117 72 171 25 55 45&#10;107 45 116 0 21 1 21 70 -14z m239 -154 c28 -30 32 -13 -49 -231 -29 -77 -67&#10;-182 -86 -234 -19 -51 -39 -102 -45 -112 -13 -24 -51 -24 -73 0 -16 17 -15 25&#10;23 142 68 212 130 412 141 457 l11 43 27 -20 c15 -10 38 -31 51 -45z m-2099&#10;-244 l55 -7 -49 -8 c-27 -4 -67 -7 -90 -7 -58 0 -159 -26 -220 -56 -59 -28&#10;-141 -101 -151 -134 -7 -22 -45 -28 -45 -6 0 21 -92 102 -150 131 -88 45 -137&#10;55 -262 55 -109 0 -137 7 -107 26 26 15 235 22 589 18 206 -2 400 -7 430 -12z&#10;m1750 -185 c0 -59 -11 -83 -34 -74 -21 8 -21 68 -1 108 22 41 35 28 35 -34z&#10;m-2555 32 c55 -16 120 -83 135 -139 35 -131 -33 -261 -180 -340 -61 -32 -72&#10;-35 -177 -38 -108 -4 -115 -3 -176 26 -118 55 -172 132 -171 242 1 94 39 163&#10;127 230 41 31 109 40 257 36 80 -3 163 -10 185 -17z m1097 11 c98 -27 177&#10;-128 185 -234 10 -120 -39 -217 -137 -270 -44 -24 -68 -30 -144 -34 -171 -9&#10;-306 31 -394 118 -85 82 -115 205 -72 294 28 58 91 113 144 125 57 12 373 13&#10;418 1z m-727 -496 c10 -131 2 -182 -35 -219 -29 -29 -34 -30 -120 -30 -70 -1&#10;-94 -5 -107 -17 -15 -16 -15 -19 0 -41 22 -33 111 -83 172 -97 28 -6 89 -27&#10;138 -46 48 -19 128 -42 177 -51 50 -10 90 -21 90 -25 0 -10 -2 -10 -170 -16&#10;-209 -7 -245 -7 -395 -2 l-140 5 0 -25 c0 -34 37 -45 215 -60 134 -12 310 -9&#10;415 7 l40 6 -34 -36 c-18 -20 -57 -46 -85 -59 -46 -21 -66 -23 -207 -23 -172&#10;0 -182 -5 -105 -50 44 -26 163 -55 222 -55 68 0 126 -22 166 -62 50 -50 51&#10;-84 1 -139 -46 -51 -91 -74 -173 -89 -149 -27 -312 23 -454 139 -152 123 -247&#10;299 -326 596 -11 44 -23 87 -26 97 -4 14 10 16 138 16 207 1 240 15 347 157&#10;65 85 205 215 233 215 13 0 17 -16 23 -96z m-847 -311 c27 -96 27 -97 -19&#10;-128 -24 -15 -90 -75 -149 -134 -323 -323 -506 -807 -446 -1176 31 -188 134&#10;-448 245 -617 45 -69 170 -200 256 -268 59 -47 258 -144 355 -174 121 -36 201&#10;-47 368 -47 160 -1 314 24 477 77 111 36 304 123 416 187 52 29 137 77 189&#10;107 193 109 421 308 518 453 51 77 89 174 117 302 17 77 113 364 126 380 10&#10;10 13 -61 10 -200 -4 -227 -87 -466 -220 -640 -78 -101 -230 -242 -346 -320&#10;-206 -138 -498 -290 -710 -370 -211 -79 -374 -110 -590 -110 -150 1 -184 4&#10;-285 28 -159 37 -256 76 -374 148 -169 103 -263 190 -402 374 -122 160 -234&#10;448 -265 682 -14 109 -7 342 15 439 39 182 103 346 188 488 70 116 88 141 179&#10;252 94 113 300 304 329 304 4 0 12 -17 18 -37z m1911 -15 c166 -99 281 -199&#10;395 -341 l46 -57 -33 -64 c-17 -36 -34 -65 -37 -65 -3 -1 -24 28 -48 63 -58&#10;86 -201 223 -345 329 l-118 88 20 33 c12 18 21 41 21 50 0 9 3 16 6 16 3 0 45&#10;-23 93 -52z m-1850 -228 c16 -75 15 -78 -38 -126 -96 -86 -261 -337 -333 -505&#10;-64 -149 -115 -317 -133 -443 -8 -60 -22 -141 -30 -180 -8 -39 -15 -87 -16&#10;-106 0 -34 -1 -34 -10 -10 -46 112 -65 380 -34 485 99 344 224 583 423 804 61&#10;68 134 131 153 131 4 0 12 -23 18 -50z m1238 -12 c-2 -13 -4 -5 -4 17 -1 22 1&#10;32 4 23 2 -10 2 -28 0 -40z m561 -22 c54 -41 126 -104 160 -141 54 -58 174&#10;-223 188 -258 2 -7 -9 -44 -27 -82 l-31 -69 -33 63 c-65 122 -220 303 -359&#10;420 l-39 33 12 54 c7 30 16 54 21 54 5 0 54 -33 108 -74z m-1766 -216 c-2 -24&#10;-8 -55 -13 -68 -12 -31 -44 -200 -58 -302 -19 -139 -22 -225 -11 -304 24 -185&#10;69 -298 193 -486 42 -63 74 -116 71 -119 -4 -4 -77 43 -167 109 -77 56 -179&#10;235 -208 365 -22 100 -17 310 10 454 19 96 22 128 13 142 -10 15 -5 30 23 85&#10;41 78 102 157 116 148 5 -3 9 -2 8 3 -3 18 2 24 14 20 8 -3 11 -19 9 -47z&#10;m1695 -6 c73 -79 125 -211 168 -427 39 -199 37 -211 -44 -374 -64 -126 -92&#10;-186 -169 -358 -56 -126 -163 -333 -181 -349 -13 -12 -51 -19 -137 -26 -65 -5&#10;-147 -13 -180 -16 l-62 -7 -11 54 c-6 30 -23 91 -38 137 -27 83 -27 83 -8 115&#10;11 18 33 58 51 90 23 44 33 55 41 45 6 -7 45 -65 88 -128 89 -133 112 -160&#10;135 -160 23 0 116 100 177 190 68 102 148 264 190 385 52 148 55 253 14 440&#10;-34 158 -89 391 -97 418 -10 31 19 18 63 -29z m-1572 -176 c25 -58 235 -265&#10;353 -348 88 -62 249 -164 275 -173 16 -6 11 -13 -98 -137 -49 -56 -121 -145&#10;-160 -199 -72 -100 -165 -211 -177 -211 -10 0 -154 235 -193 315 -19 39 -48&#10;113 -66 165 -29 86 -32 106 -31 210 2 153 47 420 71 420 4 0 16 -19 26 -42z&#10;m1460 -75 c51 -204 68 -407 45 -513 -15 -66 -47 -141 -109 -257 -54 -100 -137&#10;-223 -150 -223 -4 0 -26 26 -50 58 -23 31 -89 120 -146 198 -60 83 -135 170&#10;-181 212 -43 40 -76 74 -73 76 2 2 45 30 94 62 212 137 405 309 485 432 25 38&#10;48 66 53 63 4 -4 19 -53 32 -108z m939 -103 c45 -145 54 -189 64 -323 20 -250&#10;-35 -510 -162 -773 -221 -451 -713 -775 -1242 -816 -126 -10 -161 -9 -210 2&#10;-33 8 -50 16 -39 18 54 8 65 13 65 31 0 30 33 38 289 71 117 16 297 73 415&#10;132 410 204 637 508 738 985 20 92 23 136 22 298 -1 169 -3 197 -22 249 -28&#10;75 -28 98 3 182 14 38 25 71 25 73 0 3 4 1 9 -4 5 -6 25 -62 45 -125z m-554&#10;28 c28 -46 31 -58 26 -97 -13 -92 -30 -70 -55 73 -17 95 -16 96 29 24z m-2274&#10;-78 c0 -11 -3 -20 -7 -20 -9 0 -6 -27 4 -36 4 -4 7 -92 7 -195 0 -205 9 -269&#10;60 -420 32 -95 92 -220 147 -309 50 -80 193 -221 303 -300 102 -72 297 -181&#10;395 -220 33 -13 69 -28 80 -33 19 -10 19 -10 0 -18 -11 -4 -68 -8 -127 -8&#10;l-107 -1 -83 43 c-235 122 -402 259 -543 447 -106 140 -167 276 -226 504 -27&#10;103 -31 131 -25 195 6 81 37 200 81 319 27 72 41 89 41 52z m1199 -440 l27&#10;-10 -50 -41 c-68 -54 -91 -94 -108 -191 -8 -45 -16 -84 -19 -87 -9 -9 -31 22&#10;-70 96 l-37 72 31 38 c17 22 52 55 79 75 82 62 98 67 147 48z m-1346 -280 c44&#10;-141 131 -307 218 -415 93 -116 221 -241 311 -304 34 -24 61 -46 58 -48 -5 -5&#10;-94 31 -168 68 -89 45 -244 175 -304 256 -70 92 -120 186 -138 258 -17 62 -23&#10;287 -8 270 4 -6 19 -44 31 -85z m1065 -82 l47 -73 -34 -105 c-23 -73 -39 -106&#10;-51 -108 -22 -5 -139 50 -187 88 l-38 31 42 42 c23 23 69 77 102 120 32 42 62&#10;77 65 77 4 0 28 -33 54 -72z m-614 -45 c36 -24 112 -77 170 -119 184 -131 319&#10;-195 530 -250 131 -34 476 -52 664 -34 70 6 132 8 137 3 4 -4 -52 -39 -126&#10;-77 l-133 -69 -169 6 c-397 12 -600 68 -852 235 -144 96 -331 295 -331 352 0&#10;18 39 1 110 -47z m805 -112 c-13 -38 -29 -94 -36 -125 -11 -49 -15 -56 -36&#10;-56 -13 0 -26 7 -30 16 -6 17 19 111 50 187 17 40 23 47 48 47 l28 0 -24 -69z&#10;m1340 -178 c-20 -30 -138 -166 -170 -196 -32 -29 -247 -169 -283 -184 -31 -13&#10;-52 -11 -52 5 0 4 24 20 53 36 141 78 283 185 397 300 35 36 66 66 68 66 3 0&#10;-4 -12 -13 -27z m-1510 -292 c74 -16 186 -29 310 -37 l110 -7 -90 -24 c-120&#10;-30 -163 -29 -233 5 -31 16 -85 39 -119 52 -58 21 -87 38 -45 27 9 -3 40 -10&#10;67 -16z m920 -147 c-46 -20 -64 -15 -25 5 19 11 39 16 45 13 5 -3 -4 -12 -20&#10;-18z"/>
    <path d="M4120 5630 c-17 -41 -6 -50 14 -11 18 35 19 41 7 41 -5 0 -14 -14&#10;-21 -30z"/>
    <path d="M3225 7098 c-2 -7 -11 -38 -19 -68 -8 -30 -28 -97 -44 -148 l-29 -94&#10;-42 66 c-75 115 -161 177 -288 210 -91 24 -121 22 -129 -10 -22 -88 63 -415&#10;135 -515 76 -107 210 -151 349 -115 35 9 69 16 75 16 6 0 72 -62 146 -138 136&#10;-138 190 -177 214 -153 20 20 -27 91 -102 158 -38 33 -84 77 -102 97 l-32 37&#10;21 67 c47 145 51 284 11 399 -38 113 -148 240 -164 191z m-371 -128 c33 -16&#10;81 -49 106 -73 86 -83 175 -215 157 -233 -7 -7 -223 102 -274 139 -46 32 -70&#10;80 -73 142 -3 68 -4 68 84 25z m472 -124 c11 -43 15 -86 11 -146 -6 -92 -32&#10;-193 -50 -187 -5 1 -24 27 -40 56 -55 97 -47 242 21 375 l14 30 14 -34 c8 -18&#10;21 -60 30 -94z m-311 -225 c113 -64 165 -105 151 -118 -10 -10 -152 -10 -189&#10;0 -60 16 -135 107 -152 184 l-7 33 44 -19 c24 -10 93 -46 153 -80z"/>
    <path d="M8810 6752 c-161 -76 -168 -79 -400 -184 -331 -151 -762 -334 -965&#10;-410 -71 -27 -188 -73 -260 -103 -71 -29 -152 -62 -180 -72 l-50 -19 -3 -63&#10;c-3 -71 -5 -70 88 -29 25 11 126 53 225 94 457 185 577 235 675 278 58 26 155&#10;68 215 93 61 26 225 98 365 161 213 95 350 152 367 152 20 0 -47 -154 -104&#10;-239 -52 -76 -184 -201 -278 -263 -128 -85 -429 -230 -710 -341 -430 -170&#10;-568 -223 -705 -271 -74 -27 -149 -53 -167 -59 l-32 -12 18 -53 c10 -29 21&#10;-55 24 -59 4 -3 26 -1 49 6 106 32 611 220 888 331 168 67 334 133 370 145 36&#10;13 104 40 152 59 89 37 128 44 128 26 0 -6 -9 -38 -21 -72 -69 -204 -326 -410&#10;-694 -556 -199 -78 -656 -235 -811 -277 -12 -3 3 -125 15 -125 35 0 680 200&#10;805 249 78 32 235 81 255 81 9 0 11 -9 6 -32 -29 -146 -209 -324 -417 -414&#10;-141 -61 -343 -125 -592 -188 -55 -14 -103 -31 -108 -38 -4 -7 -8 -33 -8 -57&#10;l0 -44 63 6 c34 3 134 24 223 47 194 49 303 70 309 61 2 -4 -12 -32 -32 -62&#10;-93 -141 -284 -243 -580 -309 l-103 -23 -19 -51 -19 -51 23 -3 c35 -5 262 44&#10;366 79 271 90 447 258 490 468 12 55 13 57 65 80 149 65 330 222 391 337 44&#10;82 66 182 60 267 -4 66 -4 68 24 82 101 53 246 183 317 288 44 63 90 186 102&#10;269 11 74 7 102 -16 129 -13 14 -7 22 47 65 202 161 334 383 347 581 5 86 -4&#10;113 -37 113 -9 0 -81 -31 -161 -68z"/>
    <path d="M1212 6788 c-28 -28 -1 -181 57 -318 40 -96 129 -216 233 -315 68&#10;-65 83 -84 69 -88 -55 -14 -16 -238 66 -375 51 -86 163 -204 262 -277 l81 -59&#10;0 -76 c0 -152 51 -259 184 -388 94 -91 202 -163 291 -193 l50 -18 7 -58 c18&#10;-141 161 -325 318 -411 134 -72 403 -152 516 -152 21 0 21 2 10 40 -6 22 -16&#10;44 -21 49 -6 5 -86 32 -180 61 -238 72 -390 158 -465 262 -29 39 -47 84 -38&#10;93 4 5 109 -19 318 -73 85 -22 175 -43 199 -47 39 -6 43 -5 38 10 -4 9 -7 36&#10;-7 59 l0 42 -147 43 c-385 114 -629 216 -771 322 -64 49 -127 127 -158 197&#10;-23 51 -31 102 -17 102 13 0 277 -82 388 -121 170 -58 647 -211 650 -207 1 2&#10;5 31 7 64 4 61 4 61 -26 72 -17 6 -161 56 -321 112 -406 142 -451 159 -620&#10;241 -250 120 -399 240 -466 374 -30 61 -62 165 -54 174 7 7 98 -22 210 -67&#10;281 -112 700 -273 1105 -425 124 -46 232 -87 240 -91 11 -4 20 8 34 51 10 32&#10;20 63 22 69 3 7 -37 24 -97 43 -88 28 -377 138 -629 240 -41 16 -147 59 -235&#10;94 -418 169 -517 216 -640 309 -197 147 -321 311 -333 440 -5 57 -22 61 165&#10;-34 124 -64 201 -97 628 -275 199 -83 247 -102 640 -257 149 -59 352 -143 452&#10;-187 169 -74 203 -84 203 -58 0 6 9 28 19 50 18 37 18 41 3 45 -30 10 -223 86&#10;-417 164 -104 43 -307 123 -450 180 -448 177 -821 337 -1073 461 -134 65 -254&#10;119 -266 119 -12 0 -27 -5 -34 -12z"/>
    <path d="M6360 6482 c-27 -8 -59 -44 -65 -72 -13 -61 43 -130 92 -113 40 14&#10;73 56 73 94 0 54 -56 105 -100 91z"/>
    <path d="M7862 5409 c-35 -17 -62 -33 -59 -36 6 -5 137 53 137 62 0 9 -13 4&#10;-78 -26z"/>
    <path d="M7666 4870 c-27 -11 -54 -24 -60 -30 -6 -7 13 -2 43 9 30 11 59 25&#10;65 31 13 13 10 13 -48 -10z"/>
    <path d="M2610 4820 c8 -5 22 -9 30 -9 10 0 8 3 -5 9 -27 12 -43 12 -25 0z"/>
    <path d="M6881 4236 c-10 -12 -8 -13 9 -9 25 7 37 23 17 23 -8 0 -20 -6 -26&#10;-14z"/>
    <path d="M6657 3833 c-3 -5 -13 -43 -22 -86 -25 -115 -7 -199 58 -269 31 -33&#10;131 -98 151 -98 41 0 82 114 72 199 -12 103 -58 176 -145 232 -42 27 -104 39&#10;-114 22z m110 -125 c22 -24 46 -54 53 -66 12 -25 17 -128 6 -139 -11 -11 -74&#10;25 -92 51 -9 14 -20 43 -25 63 -9 39 -2 133 10 133 4 0 25 -19 48 -42z"/>
    <path d="M3375 3773 c-91 -37 -144 -101 -164 -204 -13 -61 -4 -102 24 -113 30&#10;-11 122 -6 166 9 90 32 146 126 135 224 -10 80 -26 101 -79 100 -23 0 -60 -7&#10;-82 -16z m66 -144 c-6 -21 -25 -49 -41 -63 -29 -24 -95 -45 -106 -33 -3 3 -1&#10;23 5 45 13 47 51 88 106 113 40 18 40 18 43 -3 2 -12 -1 -39 -7 -59z"/>
    <path d="M2862 3667 c-30 -32 -28 -70 7 -109 16 -18 31 -31 33 -28 66 88 68&#10;101 25 140 -27 26 -39 25 -65 -3z"/>
    <path d="M7232 3657 c-28 -30 -27 -55 3 -92 l24 -30 36 35 c42 41 44 62 9 89&#10;-34 27 -46 26 -72 -2z"/>
    <path d="M2750 3107 c-128 -29 -240 -112 -288 -215 -23 -50 -27 -69 -26 -152&#10;0 -118 25 -186 92 -261 70 -79 168 -121 289 -127 86 -4 96 -2 155 25 35 17 84&#10;49 109 71 l46 41 -60 61 -59 62 -27 -26 c-81 -77 -234 -75 -307 6 -56 61 -70&#10;156 -35 234 30 65 109 114 187 114 39 0 129 -32 163 -59 l24 -18 58 59 59 60&#10;-32 26 c-105 89 -232 125 -348 99z"/>
    <path d="M3550 3107 c-127 -29 -238 -114 -286 -219 -24 -53 -28 -76 -29 -149&#10;0 -78 3 -91 37 -161 45 -91 103 -147 196 -191 60 -29 77 -32 158 -32 86 0 94&#10;2 177 43 144 71 206 167 215 327 4 94 -17 165 -73 238 -85 112 -259 175 -395&#10;144z m168 -186 c74 -38 112 -102 112 -188 -1 -96 -43 -164 -122 -198 -133 -55&#10;-277 50 -279 204 -1 83 36 142 116 184 42 23 127 21 173 -2z"/>
    <path d="M3586 2778 c-24 -34 -20 -71 12 -101 15 -15 34 -27 42 -27 22 0 70&#10;52 70 76 0 12 -9 33 -21 48 -27 34 -81 36 -103 4z"/>
    <path d="M5893 3104 c-137 -43 -209 -195 -148 -314 33 -63 80 -98 173 -126&#10;131 -40 172 -61 172 -90 0 -30 -33 -64 -62 -65 -74 -4 -153 21 -211 65 l-43&#10;33 -43 -64 -44 -64 34 -35 c19 -20 57 -48 84 -62 46 -25 60 -27 165 -27 101 0&#10;120 3 160 24 96 50 144 120 144 212 1 104 -56 159 -229 219 -49 18 -100 38&#10;-112 46 -28 18 -31 61 -5 80 41 31 177 8 229 -39 27 -24 24 -26 56 39 14 27&#10;33 56 41 63 9 8 16 17 16 22 0 4 -38 27 -83 49 -72 36 -95 42 -163 46 -54 2&#10;-95 -1 -131 -12z"/>
    <path d="M6573 3103 l-193 -3 0 -83 0 -82 115 3 115 4 0 -291 0 -291 85 0 c61&#10;0 85 4 86 13 3 20 4 110 7 342 l2 220 107 0 108 0 3 83 3 82 -64 0 c-35 0 -91&#10;1 -123 3 -32 2 -146 2 -251 0z"/>
    <path d="M7304 3030 c-14 -41 -45 -118 -69 -170 -23 -52 -73 -169 -110 -260&#10;-37 -91 -76 -182 -86 -202 l-19 -38 89 0 c59 0 92 4 98 13 6 6 20 39 33 72&#10;l23 60 155 -2 c85 -1 158 -6 162 -10 4 -4 15 -30 25 -58 10 -27 22 -56 28 -62&#10;14 -19 177 -18 177 1 0 12 -35 106 -132 351 -48 123 -149 359 -157 367 -3 3&#10;-47 8 -98 10 l-92 3 -27 -75z m136 -153 c0 -8 18 -58 40 -112 21 -55 38 -101&#10;36 -102 -2 -2 -44 -2 -93 -1 l-90 3 45 113 c42 102 62 134 62 99z"/>
    <path d="M4190 2731 l0 -370 86 -3 c47 -2 88 -1 90 1 2 2 4 50 4 106 l0 102&#10;106 6 c92 4 114 9 169 36 77 38 120 87 141 159 38 128 -33 263 -163 312 -47&#10;17 -78 20 -243 20 l-190 0 0 -369z m371 199 c30 -16 52 -68 45 -105 -13 -68&#10;-68 -95 -192 -95 l-44 0 0 105 0 105 86 0 c47 0 94 -5 105 -10z"/>
    <path d="M5120 3089 c0 -15 -88 -235 -199 -499 -50 -118 -91 -218 -91 -222 0&#10;-4 40 -8 88 -8 l89 0 28 69 c20 51 33 70 49 73 11 2 82 4 156 3 l134 0 31 -72&#10;30 -73 88 0 c52 0 87 4 87 10 0 14 -70 180 -234 555 -36 83 -66 156 -66 163 0&#10;9 -26 12 -95 12 -63 0 -95 -4 -95 -11z m100 -210 c0 -6 20 -58 45 -115 25 -56&#10;45 -105 45 -108 0 -3 -43 -6 -95 -6 -52 0 -95 2 -95 4 0 2 14 33 30 68 17 35&#10;36 87 42 116 11 46 28 71 28 41z"/>
    <path d="M8104 2800 c-29 -11 -49 -62 -34 -89 15 -30 55 -53 82 -49 32 4 53&#10;51 41 91 -10 35 -56 59 -89 47z"/>
    <path d="M2030 2780 c-27 -27 -25 -56 5 -85 46 -47 115 -20 115 45 0 29 -35&#10;60 -70 60 -17 0 -39 -9 -50 -20z"/>
    <path d="M1886 2764 c-20 -19 -5 -54 23 -54 24 0 34 26 21 51 -13 23 -24 24&#10;-44 3z"/>
  </g>
</svg>